<svg xmlns="http://www.w3.org/2000/svg" width="25" height="24.449" viewBox="0 0 25 24.449">
  <path id="publications" d="M120.83,33.7a23.247,23.247,0,0,0-10.073,3.742V56.11a24.272,24.272,0,0,1,10.073-2.987ZM98.882,35.179,97.8,35.05V54.834a31.276,31.276,0,0,1,12.5,3.315,31.51,31.51,0,0,1,12.5-3.315V35.045l-1.052.129V53.579a.474.474,0,0,1-.462.461,23.031,23.031,0,0,0-10.728,3.25c-.293.2-.625-.065-.888-.2A22.647,22.647,0,0,0,99.333,54.04a.47.47,0,0,1-.461-.461l.01-18.4ZM99.8,33.7V53.122a23.9,23.9,0,0,1,10.039,2.987V37.442A23.085,23.085,0,0,0,99.8,33.7Z" transform="translate(-97.8 -33.7)" fill="#fff"/>
</svg>
