<svg xmlns="http://www.w3.org/2000/svg" width="25" height="24.888" viewBox="0 0 25 24.888">
  <path id="megaphone" d="M103.792,53.575,104.88,56.9a3.233,3.233,0,0,0,3.022,2.218l1.726,5.271h0a.436.436,0,0,0,.415.29.386.386,0,0,0,.135-.021l2.747-.891a.449.449,0,0,0,.254-.212.437.437,0,0,0,.036-.332l-.648-1.959a3.473,3.473,0,0,0,2.3-3.462l13.351-.575h0a.425.425,0,0,0,.337-.187.44.44,0,0,0,.057-.384l-2.156-6.6a1.987,1.987,0,0,0,.456-3.141,2.019,2.019,0,0,0-1.679-.58l-2.026-6.245h0a.431.431,0,0,0-.27-.275.426.426,0,0,0-.378.041l-13.548,8.6-3.161,1.047a3.223,3.223,0,0,0-2.058,4.068Zm8.323,6.3-.58-1.762.565-.187,1.316-.057A1.971,1.971,0,0,1,112.115,59.872Z" transform="translate(-103.633 -39.788)" fill="#fff"/>
</svg>
